<svg width="512" height="512" viewBox="0 0 512 512" fill="none" xmlns="http://www.w3.org/2000/svg">
<rect width="512" height="512" fill="black"/>
<path d="M372.5 226.5V327.5C372.5 353 400 341 400 357C400 372 379 384.5 354.5 384.5C318.5 384.5 297.5 364 297.5 328V239.5C297.5 211.5 281 192 256.5 192C232 192 214.5 211.5 214.5 239.5V317C214.5 348.5 243.5 349 243.5 365C243.5 376 231 381 204 381H151C123.5 381 111 376 111 365C111 349 140 348.5 140 317V226C140 195 111 195 111 178.5C111 168.5 122 162 146 157.5L196.5 148C208 146 214.5 150.5 214.5 160V190H215.5C234 162.5 261.5 147.5 293 147.5C342.5 147.5 372.5 177 372.5 226.5Z" fill="white"/>
</svg>
