<svg width="8" height="8" viewBox="0 0 8 8" fill="none" xmlns="http://www.w3.org/2000/svg">
<path d="M6.84875 3.2367C7.56065 3.39756 8 3.64621 8 4C8 4.35379 7.56066 4.60244 6.84875 4.7633C7.38487 5.25859 7.64104 5.6936 7.46414 6C7.28724 6.30639 6.78242 6.30205 6.08545 6.08541C6.30209 6.78238 6.30643 7.2872 6.00004 7.4641C5.69364 7.641 5.25861 7.38482 4.76332 6.84869C4.60245 7.56063 4.3538 8 4 8C3.64621 8 3.39756 7.56066 3.2367 6.84875C2.74143 7.38484 2.30643 7.64099 2.00004 7.4641C1.69364 7.2872 1.69799 6.78238 1.91463 6.08541C1.21765 6.30205 0.712834 6.30639 0.535937 6C0.359041 5.69361 0.615207 5.25859 1.15131 4.76332C0.43937 4.60245 -6.02735e-08 4.3538 0 4C1.5465e-08 3.6462 0.43937 3.39755 1.15131 3.23668C0.615207 2.74141 0.359042 2.30639 0.535937 2C0.712834 1.69361 1.21765 1.69795 1.91463 1.91459C1.69799 1.21762 1.69364 0.712795 2.00004 0.535898C2.30643 0.359005 2.74143 0.61516 3.2367 1.15125C3.39756 0.439343 3.64621 0 4 0C4.3538 0 4.60245 0.439371 4.76332 1.15131C5.25861 0.615182 5.69364 0.358998 6.00004 0.535898C6.30643 0.712795 6.30209 1.21762 6.08545 1.91459C6.78242 1.69795 7.28724 1.69361 7.46414 2C7.64104 2.3064 7.38487 2.74142 6.84875 3.2367Z" fill="#92F4E5"/>
</svg>
